<?xml version="1.0" standalone="no"?>
<!DOCTYPE svg PUBLIC "-//W3C//DTD SVG 20010904//EN"
 "http://www.w3.org/TR/2001/REC-SVG-20010904/DTD/svg10.dtd">
<svg version="1.0" xmlns="http://www.w3.org/2000/svg"
 width="155.000000pt" height="177.000000pt" viewBox="0 0 155.000000 177.000000"
 preserveAspectRatio="xMidYMid meet">

<g transform="translate(0.000000,177.000000) scale(0.100000,-0.100000)"
fill="#000000" stroke="none">
<path d="M594 1470 c-91 -24 -156 -57 -231 -117 -172 -137 -253 -306 -253
-523 0 -208 76 -371 237 -511 116 -101 253 -149 423 -149 254 0 458 121 586
346 95 168 99 436 10 612 -56 110 -187 242 -296 297 -129 66 -327 84 -476 45z
m356 -135 c151 -54 282 -191 331 -344 29 -93 29 -235 0 -324 -83 -249 -342
-410 -592 -368 -197 32 -371 183 -430 370 -29 91 -29 232 0 322 49 153 180
290 331 344 95 34 265 34 360 0z"/>
<path d="M744 1220 c-12 -5 -26 -21 -32 -37 -7 -22 -20 -32 -49 -41 -153 -46
-203 -204 -96 -303 31 -30 74 -53 116 -63 26 -6 27 -9 27 -71 0 -74 -10 -81
-58 -40 -66 55 -144 7 -107 -65 16 -31 81 -74 128 -86 20 -4 32 -16 39 -36 20
-56 104 -56 118 1 4 16 19 28 53 41 61 23 113 63 132 100 19 37 19 113 1 148
-27 52 -93 100 -158 116 -27 6 -28 9 -28 71 0 74 10 81 58 40 53 -44 115 -26
115 34 0 42 -33 75 -108 105 -45 19 -61 31 -71 55 -7 17 -17 31 -23 31 -5 0
-15 2 -23 4 -7 3 -23 1 -34 -4z m-34 -255 c0 -60 -9 -67 -48 -39 -28 20 -28
57 1 77 39 28 47 21 47 -38z m168 -231 c29 -20 28 -58 -3 -78 -39 -25 -45 -20
-45 39 0 60 9 67 48 39z"/>
</g>
</svg>
